<?xml version="1.0" encoding="utf-8"?>
<!-- Generator: Adobe Illustrator 18.0.0, SVG Export Plug-In . SVG Version: 6.00 Build 0)  -->
<!DOCTYPE svg PUBLIC "-//W3C//DTD SVG 1.1//EN" "http://www.w3.org/Graphics/SVG/1.1/DTD/svg11.dtd">
<svg version="1.1" id="Layer_1" xmlns="http://www.w3.org/2000/svg" xmlns:xlink="http://www.w3.org/1999/xlink" x="0px" y="0px"
	 viewBox="0 0 394.7 251.9" enable-background="new 0 0 394.7 251.9" xml:space="preserve">
<g>
	<g>
		<g>
			<g>
				<g>
					<path d="M39.8-264.9v69H24v-69H0v-14.1h64.6v14.1H39.8z"/>
					<path d="M83.9-265.8v21.4h39v11.6h-39v23.5h41.5v13.3H68.2v-83.1H125v13.3H83.9z"/>
					<path d="M182.3-225.6h15.8v2.9c0,11.6-2.1,19-6.3,22.4c-4.2,3.4-13.6,5.1-28,5.1c-16.4,0-26.5-2.7-30.3-8
						c-3.8-5.4-5.7-19.7-5.7-43c0-13.7,2.6-22.7,7.7-27.1c5.1-4.3,15.8-6.5,32.1-6.5c11.9,0,19.8,1.8,23.8,5.3c4,3.6,6,10.6,6,21.2
						l0.1,1.9h-15.8v-2.1c0-5.4-1-8.9-3.1-10.4c-2-1.5-6.7-2.3-14-2.3c-9.8,0-15.7,1.2-17.6,3.6c-2,2.4-3,9.5-3,21.3
						c0,15.9,0.9,25.3,2.6,28.3c1.8,2.9,7.5,4.4,17.1,4.4c7.8,0,12.9-0.8,15.3-2.4c2.3-1.6,3.5-5.2,3.5-10.7L182.3-225.6z"/>
					<path d="M272.3-279.1v83.1h-15.8v-35.9h-39v35.9h-15.8v-83.1h15.8v33.9h39v-33.9H272.3z"/>
				</g>
				<g>
					<g>
						<path d="M325.6-218.7h9.5l0.1,3.5c0,13.9-9.1,20.8-27.2,20.8c-11.7,0-19.4-2.2-23.1-6.6c-3.8-4.4-5.6-13.4-5.6-27.1
							c0-12.8,1.9-21.5,5.7-26.1c3.8-4.6,11.1-6.9,21.8-6.9c10.5,0,17.7,1.5,21.6,4.6c3.8,3.1,5.8,8.9,5.8,17.5h-9.5v-1.7
							c0-5-1.2-8.4-3.7-10c-2.5-1.7-7.4-2.5-14.8-2.5c-7.1,0-11.7,1.6-13.8,4.7c-2,3.2-3.1,10.3-3.1,21.3c0,10.8,1.2,17.6,3.5,20.5
							c2.3,2.9,7.8,4.4,16.3,4.4c7.2,0,11.8-1,13.8-2.9C324.7-207,325.6-211.5,325.6-218.7z"/>
						<path d="M351.4-241.9h-9.4c0-7.5,1.7-12.6,5.1-15.2c3.4-2.6,10.1-3.9,20-3.9c10.8,0,18.1,1.6,21.9,4.8
							c3.8,3.2,5.7,9.3,5.7,18.2v42.8h-9.5l0.7-7l-0.2-0.1c-3.6,5.3-11,8-22,8c-16.4,0-24.5-6.6-24.5-19.7c0-7.8,1.8-13.2,5.5-16.2
							c3.7-3,10.3-4.5,19.9-4.5c11.4,0,18.2,2.2,20.5,6.7l0.2-0.1v-7.9c0-7.4-1-12.2-3-14.4c-2-2.2-6.5-3.3-13.4-3.3
							c-11.7,0-17.5,3.3-17.5,9.8C351.3-243.5,351.3-242.9,351.4-241.9z M366.6-227.4c-7.3,0-12,0.8-14.2,2.3
							c-2.2,1.5-3.3,4.8-3.3,9.9c0,5.2,1.1,8.7,3.3,10.4c2.2,1.7,6.6,2.5,13.2,2.5c13.4,0,20.1-4.1,20.1-12.2
							c0-5.1-1.3-8.5-3.9-10.3C379.2-226.5,374.1-227.4,366.6-227.4z"/>
						<path d="M400.1-260.1h9.5l-0.2,9.8l0.2,0.2c3.7-7.3,10.7-10.9,21.1-10.9c11,0,17.6,3.6,20,10.9h0.3
							c4.1-7.3,11.5-10.9,22.3-10.9c15.3,0,22.9,7.8,22.9,23.4v42.4h-9.5v-43.2c0-5.7-1-9.6-3-11.6c-2-2-5.9-3.1-11.5-3.1
							c-7.5,0-12.6,1.4-15.3,4.2c-2.7,2.8-4,8.2-4,16.2v37.5h-9.5v-42.4l-0.1-3c0-8.4-4.8-12.5-14.3-12.5c-12.9,0-19.4,7-19.4,21.1
							v36.8h-9.5V-260.1z"/>
						<path d="M502.6-260.1h9.5l-0.5,8.2l0.3,0.2c3.3-6.2,10.4-9.4,21.3-9.4c9.6,0,16.2,2.4,19.9,7.3c3.6,4.9,5.4,13.9,5.4,27
							c0,12.2-1.8,20.6-5.5,25.3c-3.7,4.7-10.2,7.1-19.5,7.1c-10.7,0-17.7-2.9-21.1-8.6H512v35.4h-9.5V-260.1z M530.5-253.2
							c-7.6,0-12.5,1.6-14.8,4.9c-2.3,3.3-3.5,10.3-3.5,21.1c0,10,1.2,16.6,3.7,20c2.5,3.3,7.5,5,15,5c7.1,0,11.8-1.6,14.1-4.8
							c2.3-3.2,3.4-9.8,3.4-19.9c0-11-1.1-18.2-3.3-21.4C542.9-251.6,538-253.2,530.5-253.2z"/>
					</g>
				</g>
				<g>
					<path d="M352.5-188.3v20.8h-2.3v-16.6v-1.2l0-0.6l0-0.6h-0.1l-0.2,0.5c-0.1,0.2-0.2,0.4-0.2,0.5l-0.4,1l-7.1,17.2H340l-7.1-17
						l-0.4-1l-0.2-0.5c0-0.1-0.1-0.3-0.2-0.5H332l0,0.6l0,0.6v1.1v16.6h-2.3v-20.8h4.1l5.5,13.4l0.9,2.2l0.4,1.1l0.4,1.1h0.1
						l0.4-1.1c0.2-0.5,0.4-0.9,0.4-1.1l0.9-2.2l5.5-13.5H352.5z"/>
					<path d="M364.2-186.3v7.1h10.5v2h-10.5v7.8h11v2h-13.4v-20.8h13.4v2H364.2z"/>
					<path d="M407.3-188.3v20.8h-2.3v-16.6v-1.2l0-0.6l0-0.6h-0.1l-0.2,0.5c-0.1,0.2-0.1,0.4-0.2,0.5l-0.4,1l-7.1,17.2h-2.3l-7.1-17
						l-0.4-1l-0.2-0.5c0-0.1-0.1-0.3-0.2-0.5h-0.1l0,0.6l0,0.6v1.1v16.6h-2.3v-20.8h4.1l5.5,13.4l0.9,2.2l0.4,1.1l0.4,1.1h0.1
						l0.4-1.1c0.2-0.5,0.4-0.9,0.4-1.1l0.9-2.2l5.5-13.5H407.3z"/>
					<path d="M417.4-167.5v-20.8h8.7h0.8c2.3,0,3.9,0.5,4.8,1.4c0.9,0.9,1.3,2.6,1.3,5.1c0,2.4-0.4,4-1.3,4.9
						c-0.9,0.9-2.6,1.3-5,1.3l-0.9,0h-6v8.2H417.4z M419.8-177.7h5.6c2.3,0,3.8-0.2,4.5-0.7c0.7-0.5,1-1.6,1-3.3
						c0-2-0.2-3.3-0.7-3.8c-0.4-0.5-1.5-0.8-3.1-0.8l-0.9,0h-6.3V-177.7z"/>
					<path d="M458.9-188.3v20.8h-2.3v-9.6h-12.1v9.6h-2.3v-20.8h2.3v9.2h12.1v-9.2H458.9z"/>
					<path d="M471.4-188.3v20.8h-2.3v-20.8H471.4z"/>
					<path d="M495.9-182.7h-2.3c0-1.7-0.3-2.7-0.8-3.2c-0.6-0.5-1.9-0.7-3.9-0.7c-2.5,0-4,0.2-4.8,0.6c-0.7,0.4-1.1,1.4-1.1,2.9
						c0,1.7,0.3,2.7,0.8,3.1c0.6,0.4,2.2,0.6,5,0.7c3.2,0.1,5.3,0.6,6.2,1.2c0.9,0.7,1.3,2.2,1.3,4.6c0,2.6-0.5,4.2-1.5,5
						c-1,0.8-3.2,1.1-6.7,1.1c-3,0-5-0.4-6-1.1c-1-0.8-1.5-2.3-1.5-4.6l0-0.9h2.3v0.5c0,1.9,0.3,3,0.9,3.5c0.6,0.5,2,0.7,4.4,0.7
						c2.7,0,4.3-0.2,5-0.7c0.6-0.5,0.9-1.7,0.9-3.6c0-1.3-0.2-2.1-0.6-2.5c-0.4-0.4-1.3-0.7-2.6-0.8l-2.4-0.1l-2.3-0.1
						c-3.5-0.2-5.3-2.1-5.3-5.5c0-2.4,0.5-3.9,1.5-4.7c1-0.8,3.1-1.2,6.1-1.2c3.1,0,5.1,0.4,6.1,1.1
						C495.5-186.7,495.9-185.1,495.9-182.7z"/>
				</g>
			</g>
			<g id="pItPUY_13_">
				<g>
					<path d="M578.2-256.5c-0.1-0.8-0.2-1.6-0.3-2.4c-0.9-5-3.2-9.4-6.5-13.3c-2-2.4-4.4-4.6-7.1-6.3c-3.4-2.3-7.1-3.9-11.2-4.4
						c-0.8-0.1-1.6-0.1-2.4-0.2c-0.3,2.1-0.7,4.1-1,6.2c0.1,0,0.2-0.1,0.3-0.1c2.7-0.2,5.3,0.4,7.8,1.5c4.9,2.1,8.6,5.5,11.4,10
						c1.8,2.9,2.9,6.1,2.9,9.5c0,0.1,0,0.2,0.1,0.3C574.2-256,576.2-256.2,578.2-256.5z M548-266.2c5.6,0.7,11.2,5.4,12.4,11.9
						c1.7-0.2,3.4-0.4,5.2-0.6c-1-8.5-8.4-15.6-16.7-16.4C548.5-269.7,548.3-268,548-266.2z"/>
					<path fill-rule="evenodd" clip-rule="evenodd" d="M590.1-257.9c-1,0.1-1.9,0.2-2.9,0.3c-1,0.1-2,0.2-3,0.4c0-0.5,0-1-0.1-1.5
						c-0.3-4.7-2-9-4.4-13c-2.1-3.4-4.6-6.4-7.6-9.1c-3.9-3.4-8.2-6.1-13.2-7.6c-2.1-0.6-4.3-1-6.5-1c-0.2,0-0.4,0.1-0.6,0.1
						c0.1-0.6,0.2-1,0.2-1.5c0.2-1.5,0.5-2.9,0.7-4.4c0,0,0,0,0.1-0.1c2.9,0.2,5.7,0.7,8.5,1.6c5.3,1.7,10,4.3,14.2,7.9
						c0.4,0.3,0.8,0.7,1.2,1c1,1,2,2,3,3c0.1,0.1,0.1,0.3,0.2,0.4c1.8,2,3.3,4.1,4.7,6.3c3,5,4.9,10.4,5.4,16.3
						c0,0.3,0.1,0.5,0.1,0.8C590.2-258,590.1-257.9,590.1-257.9z"/>
					<path fill-rule="evenodd" clip-rule="evenodd" d="M578.2-256.5c-2,0.3-4,0.5-6,0.7c0-0.1-0.1-0.2-0.1-0.3
						c-0.1-3.5-1.2-6.6-2.9-9.5c-2.8-4.5-6.5-7.9-11.4-10c-2.5-1.1-5.1-1.7-7.8-1.5c-0.1,0-0.1,0-0.3,0.1c0.3-2.1,0.7-4.1,1-6.2
						c0.8,0.1,1.6,0.1,2.4,0.2c4.1,0.6,7.8,2.2,11.2,4.4c2.7,1.8,5,3.9,7.1,6.3c3.3,3.9,5.6,8.2,6.5,13.3
						C578.1-258.1,578.1-257.3,578.2-256.5z"/>
					<path fill-rule="evenodd" clip-rule="evenodd" d="M548-266.2c0.3-1.7,0.6-3.4,0.9-5.1c8.3,0.8,15.7,7.9,16.7,16.4
						c-1.7,0.2-3.4,0.4-5.2,0.6C559.2-260.8,553.5-265.5,548-266.2z"/>
				</g>
			</g>
		</g>
	</g>
</g>
<g>
	<g>
		<g>
			<g>
				<g>
					<path d="M89.7,48.1v66.6H74.5V48.1H51.3V34.5h62.4v13.6H89.7z"/>
					<path d="M132.4,47.3V68H170v11.2h-37.6V102h40v12.8h-55.3V34.5h54.9v12.8H132.4z"/>
					<path d="M227.3,86.1h15.3v2.8c0,11.2-2,18.4-6.1,21.7c-4.1,3.3-13.1,4.9-27,4.9c-15.8,0-25.6-2.6-29.2-7.8
						c-3.6-5.2-5.5-19-5.5-41.5c0-13.3,2.5-22,7.4-26.1c4.9-4.2,15.3-6.3,31-6.3c11.4,0,19.1,1.7,22.9,5.1
						c3.8,3.4,5.8,10.2,5.8,20.4l0.1,1.8h-15.3v-2.1c0-5.3-1-8.6-3-10.1c-2-1.5-6.5-2.2-13.6-2.2c-9.4,0-15.1,1.2-17,3.5
						c-1.9,2.3-2.9,9.2-2.9,20.6c0,15.4,0.9,24.5,2.6,27.3c1.7,2.8,7.2,4.2,16.6,4.2c7.6,0,12.5-0.8,14.7-2.4
						c2.3-1.6,3.4-5,3.4-10.3L227.3,86.1z"/>
					<path d="M314.3,34.5v80.3h-15.2V80.1h-37.6v34.7h-15.2V34.5h15.2v32.8h37.6V34.5H314.3z"/>
				</g>
				<g>
					<g>
						<path d="M98.9,163.4h9.5l0.1,3.5c0,13.9-9.1,20.8-27.2,20.8c-11.7,0-19.4-2.2-23.1-6.6c-3.8-4.4-5.6-13.4-5.6-27.1
							c0-12.8,1.9-21.5,5.7-26.1c3.8-4.6,11.1-6.9,21.8-6.9c10.5,0,17.7,1.5,21.6,4.6c3.8,3.1,5.8,8.9,5.8,17.5h-9.5v-1.7
							c0-5-1.2-8.4-3.7-10c-2.5-1.7-7.4-2.5-14.8-2.5c-7.1,0-11.7,1.6-13.8,4.7c-2,3.2-3.1,10.3-3.1,21.3c0,10.8,1.2,17.6,3.5,20.5
							c2.3,2.9,7.8,4.4,16.3,4.4c7.2,0,11.8-1,13.8-2.9C97.9,175,98.9,170.5,98.9,163.4z"/>
						<path d="M124.6,140.1h-9.4c0-7.5,1.7-12.6,5.1-15.2c3.4-2.6,10.1-3.9,20-3.9c10.8,0,18.1,1.6,21.9,4.8
							c3.8,3.2,5.7,9.3,5.7,18.2v42.8h-9.5l0.7-7l-0.2-0.1c-3.6,5.3-11,8-22,8c-16.4,0-24.5-6.6-24.5-19.7c0-7.8,1.8-13.2,5.5-16.2
							c3.7-3,10.3-4.5,19.9-4.5c11.4,0,18.2,2.2,20.5,6.7l0.2-0.1v-7.9c0-7.4-1-12.2-3-14.4c-2-2.2-6.5-3.3-13.4-3.3
							c-11.7,0-17.5,3.3-17.5,9.8C124.5,138.5,124.5,139.2,124.6,140.1z M139.8,154.7c-7.3,0-12,0.8-14.2,2.3
							c-2.2,1.5-3.3,4.8-3.3,9.9c0,5.2,1.1,8.7,3.3,10.4c2.2,1.7,6.6,2.5,13.2,2.5c13.4,0,20.1-4.1,20.1-12.2
							c0-5.1-1.3-8.5-3.9-10.3C152.4,155.6,147.3,154.7,139.8,154.7z"/>
						<path d="M173.3,122h9.5l-0.2,9.8l0.2,0.2c3.7-7.3,10.7-10.9,21.1-10.9c11,0,17.6,3.6,20,10.9h0.3c4.1-7.3,11.5-10.9,22.3-10.9
							c15.3,0,22.9,7.8,22.9,23.4v42.4h-9.5v-43.2c0-5.7-1-9.6-3-11.6c-2-2-5.9-3.1-11.5-3.1c-7.5,0-12.6,1.4-15.3,4.2
							c-2.7,2.8-4,8.2-4,16.2v37.5h-9.5v-42.4l-0.1-3c0-8.4-4.8-12.5-14.3-12.5c-12.9,0-19.4,7-19.4,21.1v36.8h-9.5V122z"/>
						<path d="M275.8,122h9.5l-0.5,8.2l0.3,0.2c3.3-6.2,10.4-9.4,21.3-9.4c9.6,0,16.2,2.4,19.9,7.3c3.6,4.9,5.4,13.9,5.4,27
							c0,12.2-1.8,20.6-5.5,25.3c-3.7,4.7-10.2,7.1-19.5,7.1c-10.7,0-17.7-2.9-21.1-8.6h-0.2v35.4h-9.5V122z M303.7,128.9
							c-7.6,0-12.5,1.6-14.8,4.9c-2.3,3.3-3.5,10.3-3.5,21.1c0,10,1.2,16.6,3.7,20c2.5,3.3,7.5,5,15,5c7.1,0,11.8-1.6,14.1-4.8
							c2.3-3.2,3.4-9.8,3.4-19.9c0-11-1.1-18.2-3.3-21.4C316.1,130.5,311.3,128.9,303.7,128.9z"/>
					</g>
				</g>
				<g>
					<path d="M125.7,193.8v20.8h-2.3v-16.6v-1.2l0-0.6l0-0.6h-0.1l-0.2,0.5c-0.1,0.2-0.2,0.4-0.2,0.5l-0.4,1l-7.1,17.2h-2.3l-7.1-17
						l-0.4-1l-0.2-0.5c0-0.1-0.1-0.3-0.2-0.5h-0.1l0,0.6l0,0.6v1.1v16.6h-2.3v-20.8h4.1l5.5,13.4l0.9,2.2l0.4,1.1l0.4,1.1h0.1
						l0.4-1.1c0.2-0.5,0.4-0.9,0.4-1.1l0.9-2.2l5.5-13.5H125.7z"/>
					<path d="M137.4,195.8v7.1H148v2h-10.5v7.8h11v2h-13.4v-20.8h13.4v2H137.4z"/>
					<path d="M180.5,193.8v20.8h-2.3v-16.6v-1.2l0-0.6l0-0.6h-0.1l-0.2,0.5c-0.1,0.2-0.1,0.4-0.2,0.5l-0.4,1l-7.1,17.2h-2.3l-7.1-17
						l-0.4-1l-0.2-0.5c0-0.1-0.1-0.3-0.2-0.5H160l0,0.6l0,0.6v1.1v16.6h-2.3v-20.8h4.1l5.5,13.4l0.9,2.2l0.4,1.1l0.4,1.1h0.1
						l0.4-1.1c0.2-0.5,0.4-0.9,0.4-1.1l0.9-2.2l5.5-13.5H180.5z"/>
					<path d="M190.7,214.5v-20.8h8.7h0.8c2.3,0,3.9,0.5,4.8,1.4c0.9,0.9,1.3,2.6,1.3,5.1c0,2.4-0.4,4-1.3,4.9
						c-0.9,0.9-2.6,1.3-5,1.3l-0.9,0h-6v8.2H190.7z M193,204.4h5.6c2.3,0,3.8-0.2,4.5-0.7c0.7-0.5,1-1.6,1-3.3c0-2-0.2-3.3-0.7-3.8
						c-0.4-0.5-1.5-0.8-3.1-0.8l-0.9,0H193V204.4z"/>
					<path d="M232.1,193.8v20.8h-2.3v-9.6h-12.1v9.6h-2.3v-20.8h2.3v9.2h12.1v-9.2H232.1z"/>
					<path d="M244.7,193.8v20.8h-2.3v-20.8H244.7z"/>
					<path d="M269.1,199.4h-2.3c0-1.7-0.3-2.7-0.8-3.2c-0.6-0.5-1.9-0.7-3.9-0.7c-2.5,0-4,0.2-4.8,0.6c-0.7,0.4-1.1,1.4-1.1,2.9
						c0,1.7,0.3,2.7,0.8,3.1c0.6,0.4,2.2,0.6,5,0.7c3.2,0.1,5.3,0.6,6.2,1.2c0.9,0.7,1.3,2.2,1.3,4.6c0,2.6-0.5,4.2-1.5,5
						c-1,0.8-3.2,1.1-6.7,1.1c-3,0-5-0.4-6-1.1c-1-0.8-1.5-2.3-1.5-4.6l0-0.9h2.3v0.5c0,1.9,0.3,3,0.9,3.5c0.6,0.5,2,0.7,4.4,0.7
						c2.7,0,4.3-0.2,5-0.7c0.6-0.5,0.9-1.7,0.9-3.6c0-1.3-0.2-2.1-0.6-2.5c-0.4-0.4-1.3-0.7-2.6-0.8l-2.4-0.1l-2.3-0.1
						c-3.5-0.2-5.3-2.1-5.3-5.5c0-2.4,0.5-3.9,1.5-4.7c1-0.8,3.1-1.2,6.1-1.2c3.1,0,5.1,0.4,6.1,1.1
						C268.7,195.4,269.1,197,269.1,199.4z"/>
				</g>
			</g>
			<g id="pItPUY_3_">
				<g>
					<path d="M351.5,125.6c-0.1-0.8-0.2-1.6-0.3-2.4c-0.9-5-3.2-9.4-6.5-13.3c-2-2.4-4.4-4.6-7.1-6.3c-3.4-2.3-7.1-3.9-11.2-4.4
						c-0.8-0.1-1.6-0.1-2.4-0.2c-0.3,2.1-0.7,4.1-1,6.2c0.1,0,0.2-0.1,0.3-0.1c2.7-0.2,5.3,0.4,7.8,1.5c4.9,2.1,8.6,5.5,11.4,10
						c1.8,2.9,2.9,6.1,2.9,9.5c0,0.1,0,0.2,0.1,0.3C347.4,126.1,349.4,125.8,351.5,125.6z M321.2,115.8c5.6,0.7,11.2,5.4,12.4,11.9
						c1.7-0.2,3.4-0.4,5.2-0.6c-1-8.5-8.4-15.6-16.7-16.4C321.7,112.4,321.5,114.1,321.2,115.8z"/>
					<path fill-rule="evenodd" clip-rule="evenodd" d="M363.3,124.2c-1,0.1-1.9,0.2-2.9,0.3c-1,0.1-2,0.2-3,0.4c0-0.5,0-1-0.1-1.5
						c-0.3-4.7-2-9-4.4-13c-2.1-3.4-4.6-6.4-7.6-9.1c-3.9-3.4-8.2-6.1-13.2-7.6c-2.1-0.6-4.3-1-6.5-1c-0.2,0-0.4,0.1-0.6,0.1
						c0.1-0.6,0.2-1,0.2-1.5c0.2-1.5,0.5-2.9,0.7-4.4c0,0,0,0,0.1-0.1c2.9,0.2,5.7,0.7,8.5,1.6c5.3,1.7,10,4.3,14.2,7.9
						c0.4,0.3,0.8,0.7,1.2,1c1,1,2,2,3,3c0.1,0.1,0.1,0.3,0.2,0.4c1.8,2,3.3,4.1,4.7,6.3c3,5,4.9,10.4,5.4,16.3
						c0,0.3,0.1,0.5,0.1,0.8C363.4,124.1,363.4,124.1,363.3,124.2z"/>
					<path fill-rule="evenodd" clip-rule="evenodd" d="M351.5,125.6c-2,0.3-4,0.5-6,0.7c0-0.1-0.1-0.2-0.1-0.3
						c-0.1-3.5-1.2-6.6-2.9-9.5c-2.8-4.5-6.5-7.9-11.4-10c-2.5-1.1-5.1-1.7-7.8-1.5c-0.1,0-0.1,0-0.3,0.1c0.3-2.1,0.7-4.1,1-6.2
						c0.8,0.1,1.6,0.1,2.4,0.2c4.1,0.6,7.8,2.2,11.2,4.4c2.7,1.8,5,3.9,7.1,6.3c3.3,3.9,5.6,8.2,6.5,13.3
						C351.3,124,351.4,124.7,351.5,125.6z"/>
					<path fill-rule="evenodd" clip-rule="evenodd" d="M321.2,115.8c0.3-1.7,0.6-3.4,0.9-5.1c8.3,0.8,15.7,7.9,16.7,16.4
						c-1.7,0.2-3.4,0.4-5.2,0.6C332.4,121.2,326.8,116.5,321.2,115.8z"/>
				</g>
			</g>
		</g>
	</g>
</g>
</svg>
