<?xml version="1.0" encoding="utf-8"?>
<!-- Generator: Adobe Illustrator 18.0.0, SVG Export Plug-In . SVG Version: 6.00 Build 0)  -->
<!DOCTYPE svg PUBLIC "-//W3C//DTD SVG 1.1//EN" "http://www.w3.org/Graphics/SVG/1.1/DTD/svg11.dtd">
<svg version="1.1" id="Layer_1" xmlns="http://www.w3.org/2000/svg" xmlns:xlink="http://www.w3.org/1999/xlink" x="0px" y="0px"
	 viewBox="0 0 286 72.4" enable-background="new 0 0 286 72.4" xml:space="preserve">
<g>
	<g>
		<g>
			<g>
				<g>
					<path d="M34.6,20.4v30.1h-6.9V20.4H17.2v-6.2h28.2v6.2H34.6z"/>
					<path d="M53.9,20v9.4h17v5.1h-17v10.3H72v5.8H47V14.2h24.9V20H53.9z"/>
					<path d="M96.8,37.6h6.9v1.3c0,5.1-0.9,8.3-2.8,9.8c-1.8,1.5-5.9,2.2-12.2,2.2c-7.2,0-11.6-1.2-13.2-3.5
						C73.9,45,73,38.7,73,28.6c0-6,1.1-9.9,3.4-11.8c2.2-1.9,6.9-2.8,14-2.8c5.2,0,8.6,0.8,10.4,2.3c1.7,1.6,2.6,4.6,2.6,9.2l0,0.8
						h-6.9v-0.9c0-2.4-0.4-3.9-1.3-4.6c-0.9-0.7-2.9-1-6.1-1c-4.3,0-6.8,0.5-7.7,1.6c-0.9,1-1.3,4.2-1.3,9.3c0,7,0.4,11.1,1.2,12.3
						c0.8,1.3,3.3,1.9,7.5,1.9c3.4,0,5.6-0.4,6.7-1.1c1-0.7,1.5-2.3,1.5-4.7L96.8,37.6z"/>
					<path d="M136.2,14.2v36.3h-6.9V34.8h-17v15.7h-6.9V14.2h6.9V29h17V14.2H136.2z"/>
				</g>
				<g>
					<g>
						<path d="M159.5,40.6h4.1l0,1.5c0,6.1-4,9.1-11.9,9.1c-5.1,0-8.5-1-10.1-2.9c-1.6-1.9-2.5-5.9-2.5-11.8c0-5.6,0.8-9.4,2.5-11.4
							c1.7-2,4.8-3,9.5-3c4.6,0,7.7,0.7,9.4,2c1.7,1.4,2.5,3.9,2.5,7.6H159V31c0-2.2-0.5-3.7-1.6-4.4c-1.1-0.7-3.2-1.1-6.5-1.1
							c-3.1,0-5.1,0.7-6,2.1c-0.9,1.4-1.3,4.5-1.3,9.3c0,4.7,0.5,7.7,1.5,9c1,1.3,3.4,1.9,7.1,1.9c3.2,0,5.2-0.4,6-1.3
							C159.1,45.7,159.5,43.7,159.5,40.6z"/>
						<path d="M170.7,30.4h-4.1c0-3.3,0.7-5.5,2.2-6.6c1.5-1.1,4.4-1.7,8.8-1.7c4.7,0,7.9,0.7,9.6,2.1c1.7,1.4,2.5,4,2.5,8v18.7
							h-4.1l0.3-3.1l-0.1,0c-1.6,2.3-4.8,3.5-9.6,3.5c-7.1,0-10.7-2.9-10.7-8.6c0-3.4,0.8-5.8,2.4-7.1c1.6-1.3,4.5-2,8.7-2
							c5,0,8,1,8.9,2.9l0.1,0v-3.4c0-3.2-0.4-5.3-1.3-6.3c-0.9-1-2.8-1.4-5.8-1.4c-5.1,0-7.6,1.4-7.6,4.3
							C170.7,29.8,170.7,30,170.7,30.4z M177.4,36.8c-3.2,0-5.2,0.3-6.2,1c-1,0.7-1.4,2.1-1.4,4.3c0,2.3,0.5,3.8,1.4,4.5
							c0.9,0.7,2.9,1.1,5.8,1.1c5.8,0,8.8-1.8,8.8-5.3c0-2.2-0.6-3.7-1.7-4.5C182.9,37.2,180.7,36.8,177.4,36.8z"/>
						<path d="M192,22.5h4.1l-0.1,4.3l0.1,0.1c1.6-3.2,4.7-4.8,9.2-4.8c4.8,0,7.7,1.6,8.7,4.8h0.1c1.8-3.2,5-4.8,9.7-4.8
							c6.7,0,10,3.4,10,10.2v18.5h-4.1V31.9c0-2.5-0.4-4.2-1.3-5.1c-0.9-0.9-2.6-1.3-5-1.3c-3.3,0-5.5,0.6-6.7,1.9
							c-1.2,1.2-1.7,3.6-1.7,7.1v16.4H211V32.3l-0.1-1.3c0-3.7-2.1-5.5-6.2-5.5c-5.6,0-8.5,3.1-8.5,9.2v16.1H192V22.5z"/>
						<path d="M236.8,22.5h4.1l-0.2,3.6l0.1,0.1c1.4-2.7,4.5-4.1,9.3-4.1c4.2,0,7.1,1.1,8.7,3.2c1.6,2.1,2.4,6.1,2.4,11.8
							c0,5.3-0.8,9-2.4,11.1c-1.6,2.1-4.4,3.1-8.5,3.1c-4.7,0-7.7-1.3-9.2-3.8H241V63h-4.1V22.5z M249,25.5c-3.3,0-5.5,0.7-6.5,2.1
							c-1,1.4-1.5,4.5-1.5,9.2c0,4.4,0.5,7.3,1.6,8.7c1.1,1.5,3.3,2.2,6.5,2.2c3.1,0,5.2-0.7,6.2-2.1c1-1.4,1.5-4.3,1.5-8.7
							c0-4.8-0.5-7.9-1.5-9.4C254.4,26.2,252.3,25.5,249,25.5z"/>
					</g>
				</g>
				<g>
					<path d="M171.2,53.9V63h-1v-7.3v-0.5l0-0.3l0-0.3h0l-0.1,0.2c0,0.1-0.1,0.2-0.1,0.2l-0.2,0.4l-3.1,7.5h-1l-3.1-7.4l-0.2-0.4
						l-0.1-0.2c0,0,0-0.1-0.1-0.2h0l0,0.2l0,0.3v0.5V63h-1v-9.1h1.8l2.4,5.9l0.4,1l0.2,0.5l0.2,0.5h0l0.2-0.5
						c0.1-0.2,0.2-0.4,0.2-0.5l0.4-0.9l2.4-5.9H171.2z"/>
					<path d="M176.3,54.8v3.1h4.6v0.9h-4.6v3.4h4.8V63h-5.8v-9.1h5.8v0.9H176.3z"/>
					<path d="M195.2,53.9V63h-1v-7.3v-0.5l0-0.3l0-0.3h0l-0.1,0.2c0,0.1-0.1,0.2-0.1,0.2l-0.2,0.4l-3.1,7.5h-1l-3.1-7.4l-0.2-0.4
						l-0.1-0.2c0,0,0-0.1-0.1-0.2h0l0,0.2l0,0.3v0.5V63h-1v-9.1h1.8l2.4,5.9l0.4,1l0.2,0.5l0.2,0.5h0l0.2-0.5
						c0.1-0.2,0.2-0.4,0.2-0.5l0.4-0.9l2.4-5.9H195.2z"/>
					<path d="M199.6,63v-9.1h3.8h0.3c1,0,1.7,0.2,2.1,0.6c0.4,0.4,0.6,1.1,0.6,2.2c0,1-0.2,1.7-0.6,2.1c-0.4,0.4-1.1,0.6-2.2,0.6
						l-0.4,0h-2.6V63H199.6z M200.6,58.5h2.4c1,0,1.7-0.1,2-0.3c0.3-0.2,0.4-0.7,0.4-1.4c0-0.9-0.1-1.4-0.3-1.7
						c-0.2-0.2-0.7-0.3-1.4-0.3l-0.4,0h-2.8V58.5z"/>
					<path d="M217.7,53.9V63h-1v-4.2h-5.3V63h-1v-9.1h1v4h5.3v-4H217.7z"/>
					<path d="M223.2,53.9V63h-1v-9.1H223.2z"/>
					<path d="M233.9,56.4h-1c0-0.7-0.1-1.2-0.4-1.4c-0.2-0.2-0.8-0.3-1.7-0.3c-1.1,0-1.8,0.1-2.1,0.3c-0.3,0.2-0.5,0.6-0.5,1.3
						c0,0.7,0.1,1.2,0.4,1.3c0.2,0.2,1,0.3,2.2,0.3c1.4,0.1,2.3,0.2,2.7,0.5c0.4,0.3,0.6,1,0.6,2c0,1.1-0.2,1.8-0.7,2.2
						c-0.4,0.3-1.4,0.5-2.9,0.5c-1.3,0-2.2-0.2-2.6-0.5c-0.4-0.3-0.6-1-0.6-2l0-0.4h1v0.2c0,0.8,0.1,1.3,0.4,1.5
						c0.2,0.2,0.9,0.3,1.9,0.3c1.2,0,1.9-0.1,2.2-0.3c0.3-0.2,0.4-0.7,0.4-1.6c0-0.6-0.1-0.9-0.3-1.1c-0.2-0.2-0.6-0.3-1.2-0.3
						l-1.1-0.1l-1-0.1c-1.5-0.1-2.3-0.9-2.3-2.4c0-1,0.2-1.7,0.7-2.1c0.4-0.3,1.3-0.5,2.7-0.5c1.4,0,2.2,0.2,2.7,0.5
						C233.7,54.6,233.9,55.3,233.9,56.4z"/>
				</g>
			</g>
			<g id="pItPUY_1_">
				<g>
					<path d="M269.9,24.1c0-0.4-0.1-0.7-0.1-1c-0.4-2.2-1.4-4.1-2.8-5.8c-0.9-1.1-1.9-2-3.1-2.8c-1.5-1-3.1-1.7-4.9-1.9
						c-0.4,0-0.7-0.1-1.1-0.1c-0.2,0.9-0.3,1.8-0.4,2.7c0.1,0,0.1,0,0.1,0c1.2-0.1,2.3,0.2,3.4,0.6c2.1,0.9,3.8,2.4,5,4.4
						c0.8,1.3,1.3,2.7,1.3,4.2c0,0,0,0.1,0,0.1C268.1,24.3,269,24.2,269.9,24.1z M256.6,19.8c2.4,0.3,4.9,2.4,5.4,5.2
						c0.8-0.1,1.5-0.2,2.3-0.3c-0.5-3.7-3.7-6.8-7.3-7.2C256.9,18.3,256.8,19.1,256.6,19.8z"/>
					<path fill-rule="evenodd" clip-rule="evenodd" d="M275.1,23.5c-0.4,0-0.9,0.1-1.3,0.1c-0.4,0-0.9,0.1-1.3,0.2
						c0-0.2,0-0.4,0-0.7c-0.1-2.1-0.9-3.9-1.9-5.7c-0.9-1.5-2-2.8-3.3-4c-1.7-1.5-3.6-2.7-5.8-3.3c-0.9-0.3-1.9-0.4-2.9-0.4
						c-0.1,0-0.2,0-0.3,0c0-0.3,0.1-0.5,0.1-0.6c0.1-0.6,0.2-1.3,0.3-1.9c0,0,0,0,0,0c1.3,0.1,2.5,0.3,3.7,0.7
						c2.3,0.7,4.4,1.9,6.2,3.4c0.2,0.1,0.4,0.3,0.5,0.4c0.4,0.4,0.9,0.9,1.3,1.3c0,0.1,0.1,0.1,0.1,0.2c0.8,0.9,1.5,1.8,2.1,2.8
						c1.3,2.2,2.2,4.5,2.4,7.1C275.1,23.2,275.1,23.3,275.1,23.5C275.1,23.4,275.1,23.5,275.1,23.5z"/>
					<path fill-rule="evenodd" clip-rule="evenodd" d="M269.9,24.1c-0.9,0.1-1.8,0.2-2.6,0.3c0,0,0-0.1,0-0.1c0-1.5-0.5-2.9-1.3-4.2
						c-1.2-2-2.9-3.5-5-4.4c-1.1-0.5-2.2-0.7-3.4-0.6c0,0-0.1,0-0.1,0c0.2-0.9,0.3-1.8,0.4-2.7c0.4,0,0.7,0,1.1,0.1
						c1.8,0.3,3.4,0.9,4.9,1.9c1.2,0.8,2.2,1.7,3.1,2.8c1.4,1.7,2.4,3.6,2.8,5.8C269.8,23.4,269.8,23.7,269.9,24.1z"/>
					<path fill-rule="evenodd" clip-rule="evenodd" d="M256.6,19.8c0.1-0.8,0.2-1.5,0.4-2.2c3.6,0.4,6.9,3.5,7.3,7.2
						c-0.8,0.1-1.5,0.2-2.3,0.3C261.6,22.2,259.1,20.1,256.6,19.8z"/>
				</g>
			</g>
		</g>
	</g>
</g>
</svg>
